<svg xmlns="http://www.w3.org/2000/svg" viewBox="0 0 120 360" role="img" aria-label="Bastos">
  <path d="M76 15c22 22 17 57 2 92-24 56-25 107-1 167 15 37 10 62-18 74-21 9-42-3-46-24-4-18 5-33 21-45 13-9 14-23 7-46-17-56-17-111 2-169 11-34 7-50-2-62 12-3 25 1 35 13Z" fill="#8b4a23" stroke="#221a14" stroke-width="8" stroke-linejoin="round"/>
  <path d="M56 42c11 24 6 52-5 82-17 49-17 91-2 139 8 26 7 44-6 56" fill="none" stroke="#d39b28" stroke-width="8" stroke-linecap="round" opacity=".75"/>
  <path d="M77 16c-3 23-19 37-43 41" fill="none" stroke="#221a14" stroke-width="8" stroke-linecap="round"/>
  <path d="M25 296c19 12 40 12 63 0" fill="none" stroke="#221a14" stroke-width="7" stroke-linecap="round" opacity=".55"/>
</svg>
